<svg width="88" height="99" viewBox="0 0 88 99" fill="none" xmlns="http://www.w3.org/2000/svg">
<g filter="url(#filter0_i_392_16)">
<path d="M49.0096 66.3567C53.8723 73.449 52.2739 83.7774 45.4395 89.426C38.6051 95.0745 29.1227 93.9041 24.2601 86.8118C19.3974 79.7195 20.9958 69.3911 27.8302 63.7425C34.6646 58.094 44.147 59.2644 49.0096 66.3567Z" fill="url(#paint0_linear_392_16)"/>
<path d="M57.1773 47.1933C62.2928 54.6544 60.3599 65.7276 52.8601 71.9261C45.3603 78.1245 35.1336 77.101 30.0182 69.64C24.9027 62.1789 26.8355 51.1057 34.3353 44.9073C41.8351 38.7088 52.0618 39.7323 57.1773 47.1933Z" fill="url(#paint1_linear_392_16)"/>
<path d="M73.568 41.1432C78.6751 48.592 76.8816 59.5343 69.5623 65.5837C62.2429 71.633 52.1693 70.4986 47.0623 63.0498C41.9552 55.6011 43.7486 44.6587 51.068 38.6094C58.3874 32.5601 68.4609 33.6945 73.568 41.1432Z" fill="url(#paint2_linear_392_16)"/>
<path d="M62.6563 57.7976C67.755 65.234 66.4027 75.7962 59.636 81.3888C52.8692 86.9814 43.2504 85.4866 38.1518 78.0502C33.0532 70.6137 34.4054 60.0516 41.1722 54.459C47.9389 48.8664 57.5577 50.3611 62.6563 57.7976Z" fill="url(#paint3_linear_392_16)"/>
</g>
<g filter="url(#filter1_i_392_16)">
<path d="M6.24463 23.1447L17.4793 68.154C17.4793 68.154 20.6054 49.9682 29.1598 41.2395C37.7142 32.5108 54.8616 29.971 54.8616 29.971L6.24463 23.1447Z" fill="url(#paint4_linear_392_16)"/>
</g>
<defs>
<filter id="filter0_i_392_16" x="21.4463" y="34.7214" width="60.0303" height="62.2803" filterUnits="userSpaceOnUse" color-interpolation-filters="sRGB">
<feFlood flood-opacity="0" result="BackgroundImageFix"/>
<feBlend mode="normal" in="SourceGraphic" in2="BackgroundImageFix" result="shape"/>
<feColorMatrix in="SourceAlpha" type="matrix" values="0 0 0 0 0 0 0 0 0 0 0 0 0 0 0 0 0 0 127 0" result="hardAlpha"/>
<feOffset dx="5" dy="4"/>
<feGaussianBlur stdDeviation="5"/>
<feComposite in2="hardAlpha" operator="arithmetic" k2="-1" k3="1"/>
<feColorMatrix type="matrix" values="0 0 0 0 0 0 0 0 0 0.284611 0 0 0 0 0.363333 0 0 0 0.5 0"/>
<feBlend mode="normal" in2="shape" result="effect1_innerShadow_392_16"/>
</filter>
<filter id="filter1_i_392_16" x="6.24512" y="23.1448" width="53.6162" height="50.0093" filterUnits="userSpaceOnUse" color-interpolation-filters="sRGB">
<feFlood flood-opacity="0" result="BackgroundImageFix"/>
<feBlend mode="normal" in="SourceGraphic" in2="BackgroundImageFix" result="shape"/>
<feColorMatrix in="SourceAlpha" type="matrix" values="0 0 0 0 0 0 0 0 0 0 0 0 0 0 0 0 0 0 127 0" result="hardAlpha"/>
<feOffset dx="5" dy="5"/>
<feGaussianBlur stdDeviation="8"/>
<feComposite in2="hardAlpha" operator="arithmetic" k2="-1" k3="1"/>
<feColorMatrix type="matrix" values="0 0 0 0 0 0 0 0 0 0.333587 0 0 0 0 0.446667 0 0 0 0.5 0"/>
<feBlend mode="normal" in2="shape" result="effect1_innerShadow_392_16"/>
</filter>
<linearGradient id="paint0_linear_392_16" x1="40.8249" y1="41.2855" x2="59.5037" y2="83.9525" gradientUnits="userSpaceOnUse">
<stop stop-color="#F9FEFF"/>
<stop offset="1" stop-color="#3289A4"/>
</linearGradient>
<linearGradient id="paint1_linear_392_16" x1="40.8249" y1="41.2855" x2="59.5037" y2="83.9525" gradientUnits="userSpaceOnUse">
<stop stop-color="#F9FEFF"/>
<stop offset="1" stop-color="#3289A4"/>
</linearGradient>
<linearGradient id="paint2_linear_392_16" x1="40.8249" y1="41.2855" x2="59.5037" y2="83.9525" gradientUnits="userSpaceOnUse">
<stop stop-color="#F9FEFF"/>
<stop offset="1" stop-color="#3289A4"/>
</linearGradient>
<linearGradient id="paint3_linear_392_16" x1="40.8249" y1="41.2855" x2="59.5037" y2="83.9525" gradientUnits="userSpaceOnUse">
<stop stop-color="#F9FEFF"/>
<stop offset="1" stop-color="#3289A4"/>
</linearGradient>
<linearGradient id="paint4_linear_392_16" x1="25.7907" y1="20.0384" x2="42.1448" y2="57.3398" gradientUnits="userSpaceOnUse">
<stop stop-color="#00FFC4"/>
<stop offset="1" stop-color="#006399"/>
</linearGradient>
</defs>
</svg>
